<svg width="177" height="176" viewBox="0 0 177 176" fill="none" xmlns="http://www.w3.org/2000/svg">
<g clip-path="url(#clip0)">
<path d="M111.872 151.562C147.332 138.656 165.692 99.6551 152.879 64.4518C140.066 29.2484 100.932 11.1732 65.472 24.0797C30.0117 36.9862 11.6524 75.987 24.4653 111.19C37.2783 146.394 76.4116 164.469 111.872 151.562Z" fill="#405866"/>
<path d="M39.8795 40.5248C22.0381 58.6546 15.0438 85.9144 24.2694 111.262C34.8254 140.264 63.2425 157.59 92.7533 155.596C62.9865 142.55 25.7556 91.2871 39.8795 40.5248V40.5248Z" fill="#F5EB35"/>
<path d="M105.188 150.034C115.452 146.298 120.766 135.009 117.057 124.82C113.349 114.63 102.022 109.398 91.7578 113.134C81.4939 116.87 76.1798 128.159 79.8885 138.348C83.5972 148.538 94.9242 153.769 105.188 150.034Z" fill="#4F6977"/>
<path d="M103.051 65.2905C103.808 67.3687 103.702 69.6644 102.756 71.6727C101.811 73.681 100.104 75.2373 98.0103 75.9992C95.917 76.7612 93.6088 76.6663 91.5937 75.7356C89.5786 74.8048 88.0216 73.1144 87.2652 71.0362C86.5795 68.9748 86.7308 66.7251 87.6868 64.7653C88.6428 62.8055 90.3281 61.2903 92.3843 60.5419C94.4406 59.7934 96.7056 59.8709 98.6976 60.7577C100.69 61.6444 102.252 63.2707 103.051 65.2905" fill="#4F6977"/>
<path d="M42.2391 123.43C46.5173 121.873 48.7322 117.168 47.1864 112.921C45.6406 108.674 40.9193 106.493 36.6412 108.05C32.3631 109.607 30.1482 114.313 31.694 118.56C33.2398 122.807 37.961 124.988 42.2391 123.43Z" fill="#E0CF35"/>
<path d="M28.9073 84.6363C31.349 83.7476 32.6132 81.0621 31.7309 78.638C30.8486 76.2139 28.154 74.9693 25.7122 75.858C23.2705 76.7467 22.0063 79.4323 22.8885 81.8564C23.7708 84.2804 26.4655 85.5251 28.9073 84.6363Z" fill="#E0CF35"/>
<path d="M52.9494 80.3598C56.7687 78.9697 58.7461 74.769 57.3661 70.9774C55.986 67.1858 51.7711 65.239 47.9518 66.6291C44.1325 68.0192 42.1551 72.2198 43.5352 76.0115C44.9152 79.8031 49.1301 81.7499 52.9494 80.3598Z" fill="#4F6977"/>
<path d="M105.03 34.1886C105.492 35.4582 105.697 36.8071 105.634 38.158C105.571 39.509 105.241 40.8357 104.663 42.0622C104.085 43.2887 103.27 44.391 102.265 45.3062C101.259 46.2213 100.084 46.9314 98.8044 47.3958C96.2226 48.3355 93.376 48.2191 90.8903 47.0722C88.4045 45.9253 86.483 43.8418 85.548 41.2795C84.6602 38.7255 84.8204 35.9219 85.994 33.4748C87.1675 31.0277 89.2602 29.1336 91.8196 28.2021C94.379 27.2705 97.1996 27.3763 99.6716 28.4965C102.144 29.6168 104.068 31.6614 105.03 34.1886" fill="#4F6977"/>
</g>
<defs>
<clipPath id="clip0">
<rect width="138" height="137" fill="white" transform="translate(0 47.1988) rotate(-20)"/>
</clipPath>
</defs>
</svg>
