<svg width="174" height="181" viewBox="0 0 174 181" fill="none" xmlns="http://www.w3.org/2000/svg">
<path d="M170.5 87.1932L138.03 77.3655C136.676 71.7977 134.56 66.4612 131.747 61.5195C137.149 51.2223 142.56 40.9251 147.97 30.6307C149.449 27.8139 146.499 24.7312 143.786 26.2811L114.211 43.1763C109.415 40.1695 104.218 37.9184 98.7878 36.4963C95.5715 25.0989 92.358 13.7016 89.1417 2.27594C88.2907 -0.752986 84.1039 -0.764299 83.2475 2.27594C80.0584 13.7016 76.8611 25.0989 73.6666 36.5245C68.3378 37.9412 63.2324 40.147 58.5068 43.0745C48.5399 37.4182 38.5702 31.7337 28.6033 26.0774C25.9009 24.5418 22.9347 27.6131 24.4246 30.4356L40.8186 61.4827C37.9811 66.4472 35.8527 71.8146 34.5003 77.4164L2.18792 87.2696C-0.721144 88.1576 -0.737457 92.5186 2.18792 93.4009L34.5111 103.183C35.9021 108.886 38.0904 114.345 41.0062 119.386C35.6285 129.618 30.2509 139.847 24.8786 150.082C23.3942 152.899 26.344 155.985 29.0573 154.438C38.8802 148.824 48.7057 143.21 58.5313 137.602C63.3042 140.562 68.466 142.784 73.8542 144.197C77.0052 155.408 80.1671 166.607 83.3236 177.804C84.18 180.841 88.3696 180.847 89.2178 177.804C92.3471 166.618 95.4845 155.43 98.6084 144.242C104.056 142.824 109.275 140.582 114.097 137.588L143.389 154.24C143.665 154.479 143.987 154.656 144.333 154.759C144.679 154.861 145.042 154.888 145.398 154.836C146.138 154.791 146.796 154.438 147.307 153.917C147.872 153.374 148.258 152.642 148.304 151.81C148.351 151.436 148.322 151.057 148.22 150.695C148.118 150.333 147.945 149.997 147.712 149.709C142.367 139.576 137.008 129.434 131.66 119.295C134.514 114.289 136.655 108.879 138.017 103.234C148.837 99.9311 159.674 96.6278 170.498 93.3303C173.415 92.4422 173.426 88.0784 170.503 87.1932" fill="#FBB041"/>
<path d="M86.6683 140.253C113.547 140.253 135.337 117.586 135.337 89.6263C135.337 61.6662 113.547 39 86.6683 39C59.7896 39 38 61.6662 38 89.6263C38 117.586 59.7896 140.253 86.6683 140.253Z" fill="#F9EC21"/>
</svg>
